<?xml version="1.0" standalone="no"?>
<!DOCTYPE svg PUBLIC "-//W3C//DTD SVG 20010904//EN"
 "http://www.w3.org/TR/2001/REC-SVG-20010904/DTD/svg10.dtd">
<svg version="1.0" xmlns="http://www.w3.org/2000/svg"
 width="200.000000pt" height="200.000000pt" viewBox="0 0 200.000000 200.000000"
 preserveAspectRatio="xMidYMid meet">
<metadata>
Created by potrace 1.14, written by Peter Selinger 2001-2017
</metadata>
<g transform="translate(0.000000,200.000000) scale(0.100000,-0.100000)"
fill="#000000" stroke="none">
<path d="M3 1863 c2 -5 26 -46 52 -93 74 -131 50 -120 258 -119 99 0 184 -4
188 -8 7 -7 124 -207 172 -293 10 -19 52 -91 92 -160 143 -245 253 -436 273
-474 l21 -39 -27 -49 c-27 -49 -42 -60 -42 -33 0 8 -4 15 -9 15 -5 0 -11 8
-14 17 -4 10 -18 38 -33 63 -14 25 -72 124 -127 220 -55 96 -105 181 -110 188
-10 12 -24 -4 -62 -73 -7 -11 -26 -45 -43 -75 l-31 -55 64 -110 c36 -60 68
-117 72 -125 25 -50 299 -520 303 -520 6 0 304 516 308 534 1 7 -70 138 -159
292 -89 153 -171 295 -181 314 -11 19 -92 160 -181 313 l-160 277 -314 0
c-173 0 -312 -3 -310 -7z"/>
<path d="M760 1850 c12 -22 134 -235 149 -260 5 -8 47 -80 93 -159 120 -209
127 -221 159 -274 16 -26 29 -49 29 -52 0 -2 24 -44 53 -92 29 -48 64 -109 77
-136 54 -102 49 -103 118 16 34 58 62 108 62 111 0 4 -18 36 -40 72 -22 36
-40 68 -40 70 0 2 -20 39 -46 82 -25 42 -49 84 -54 92 -101 174 -152 262 -170
293 l-23 38 63 -3 62 -3 90 -155 c50 -85 101 -175 115 -200 47 -83 106 -181
108 -178 1 2 30 51 64 110 l61 107 -51 88 c-29 48 -63 108 -77 133 -14 25 -31
54 -38 65 -22 31 -17 35 44 35 l58 0 60 -105 c32 -58 61 -105 64 -105 6 0 103
169 108 188 2 6 8 12 13 12 5 0 9 4 9 9 0 5 23 49 51 98 28 48 55 96 60 105 9
17 -22 18 -616 18 -626 0 -626 0 -615 -20z"/>
</g>
</svg>
